# xmcd
#
# Track frame offsets: 
#        150
#        39902
#        86815
#        120493
#        152393
#        175920
#        200332
#        228498
#        236650
#
# Disc length: 3685 seconds
#
# Revision: 1
# Processed by: cddbd v1.5.2PL0 Copyright (c) Steve Scherf et al.
# Submitted via: ExactAudioCopy v0.99pb4
#
DISCID=660e6309
DTITLE=J. Moods Quartet - Live
DYEAR=1998
DGENRE=Jazz
TTITLE0=Calimero
TTITLE1=Dark Princess
TTITLE2=The Gentle Ones
TTITLE3=Darocwalla's Dwarf
TTITLE4=Divine Intervention
TTITLE5=Another Fine Mess
TTITLE6=After Tony
TTITLE7=Introduction For Bass And Tenor Sax
TTITLE8=Baba Yaga
EXTD=
EXTT0=
EXTT1=
EXTT2=
EXTT3=
EXTT4=
EXTT5=
EXTT6=
EXTT7=
EXTT8=
PLAYORDER=
